# xmcd CD database file
#
# Track frame offsets:
#	150
#	27474
#	50183
#	71012
#	91980
#	125831
#	152796
#	178260
#	201976
#	226044
#	248581
#	274057
#	299252
#
# Disc length: 4326 seconds
#
# Revision: 0
# Processed by: cddbd v1.4PL0 Copyright (c) Steve Scherf et al.
# Submitted via: CDex 1.50beta8
#
DISCID=c410e40d
DTITLE=The Notting Hillbillies - Ronnie Scott's London 01-08-1998 CD 1
DYEAR=1998
DGENRE=Country
TTITLE0=Rune me down
TTITLE1=One way gal
TTITLE2=Good rockin' tonight
TTITLE3=Your own sweet way
TTITLE4=Railroad worksong
TTITLE5=Why worry
TTITLE6=Water of love
TTITLE7=Rope stretching
TTITLE8=Hobo's Lullaby
TTITLE9=Meet me in the bottom
TTITLE10=Denomination blues
TTITLE11=KC moan
TTITLE12=Can't be satisfied
EXTD=YEAR: 1998
EXTT0=
EXTT1=
EXTT2=
EXTT3=
EXTT4=
EXTT5=
EXTT6=
EXTT7=
EXTT8=
EXTT9=
EXTT10=
EXTT11=
EXTT12=
PLAYORDER=
